<?xml version="1.0" encoding="utf-8"?>
<!-- Generator: Adobe Illustrator 21.0.0, SVG Export Plug-In . SVG Version: 6.00 Build 0)  -->
<svg version="1.1" id="Layer_1" xmlns="http://www.w3.org/2000/svg" xmlns:xlink="http://www.w3.org/1999/xlink" x="0px" y="0px"
	 viewBox="0 0 100.5 23.5" style="enable-background:new 0 0 100.5 23.5;" xml:space="preserve">
<style type="text/css">
	.st0{display:none;}
	.st1{display:inline;}
	.st2{opacity:0.75;}
	.st3{opacity:0.1;fill:url(#SVGID_1_);enable-background:new    ;}
	.st4{opacity:0.1;fill:url(#SVGID_2_);enable-background:new    ;}
	.st5{opacity:0.1;fill:url(#SVGID_3_);enable-background:new    ;}
	.st6{opacity:0.1;fill:url(#SVGID_4_);enable-background:new    ;}
	.st7{fill:#0C92D7;}
	.st8{fill:#01F2FF;}
	.st9{fill:url(#SVGID_5_);}
	.st10{fill:#19ABFF;}
	.st11{fill:url(#SVGID_6_);}
	.st12{fill:url(#SVGID_7_);}
	.st13{fill:url(#SVGID_8_);}
	.st14{fill:url(#SVGID_9_);}
	.st15{fill:url(#SVGID_10_);}
	.st16{fill:url(#SVGID_11_);}
	.st17{fill:url(#SVGID_12_);}
	.st18{fill:url(#SVGID_13_);}
	.st19{fill:url(#SVGID_14_);}
	.st20{fill:url(#SVGID_15_);}
</style>
<g>
	<g>
		<g class="st0">
			<path class="st1" d="M11.6,2c5.3,0,9.6,4.3,9.6,9.6s-4.3,9.6-9.6,9.6S2,17,2,11.6S6.3,2,11.6,2 M11.6,0.8
				c-6,0-10.9,4.9-10.9,10.9s4.9,10.9,10.9,10.9s10.9-4.9,10.9-10.9S17.6,0.8,11.6,0.8L11.6,0.8z"/>
		</g>
		<g class="st2">
			
				<radialGradient id="SVGID_1_" cx="-0.7409" cy="18.7642" r="13.2294" gradientTransform="matrix(1 0 0 -1 0 25.5)" gradientUnits="userSpaceOnUse">
				<stop  offset="0" style="stop-color:#007ACB"/>
				<stop  offset="1" style="stop-color:#0C92D7"/>
			</radialGradient>
			<path class="st3" d="M1.3,9.8c0,0,4.4,3,6.6,3.1s5.1-0.9,5.1-0.9s4.8-2.7,9.1-1.4c0,0-0.4,12.2-10.8,11.7
				C12.3,22,0.6,21.4,1.3,9.8z"/>
			
				<radialGradient id="SVGID_2_" cx="3.6964" cy="15.0604" r="9.9577" gradientTransform="matrix(1 0 0 -1 0 25.5)" gradientUnits="userSpaceOnUse">
				<stop  offset="0" style="stop-color:#19ABFF"/>
				<stop  offset="1" style="stop-color:#0C92D7"/>
			</radialGradient>
			<path class="st4" d="M21.4,10.4c0,0-5.1-0.8-10.8,3s-9.3,0.2-9.3,0.2s4,10.8,12.7,8.4S21,11.4,21.4,10.4z"/>
			
				<radialGradient id="SVGID_3_" cx="7.1742" cy="14.0474" r="11.2091" gradientTransform="matrix(1 0 0 -1 0 25.5)" gradientUnits="userSpaceOnUse">
				<stop  offset="0" style="stop-color:#007ACB"/>
				<stop  offset="1" style="stop-color:#0C92D7"/>
			</radialGradient>
			<path class="st5" d="M21.5,10.4c0,0-7.7,2.8-11.9,6.7c0,0-3.2,2-6,2c0,0,7.2,6.8,15,0.4C18.5,19.5,21.5,14.9,21.5,10.4z"/>
			
				<radialGradient id="SVGID_4_" cx="10.3682" cy="9.2429" r="7.6028" gradientTransform="matrix(1 0 0 -1 0 25.5)" gradientUnits="userSpaceOnUse">
				<stop  offset="0" style="stop-color:#19ABFF"/>
				<stop  offset="1" style="stop-color:#01F2FF"/>
			</radialGradient>
			<path class="st6" d="M21,15.8c0,0-4.6-0.2-8.3,3c0,0-3.4,3-5.1,2.9C7.7,21.8,16.6,24,21,15.8z"/>
		</g>
		<path id="L_2_" class="st7" d="M7.1,4.9c-0.4,0-0.7,0.4-0.7,0.8v11.7c0,0.4,0.3,0.8,0.8,0.8h0.4c0.2,0,0.3-0.1,0.3-0.3V5.8
			C7.8,5.3,7.6,4.9,7.1,4.9L7.1,4.9z"/>
		<path id="COIN_1_" class="st8" d="M10.4,14.6c-0.3-0.2-1.1-0.9-1.4-1.9c-0.2-0.6-0.2-1-0.2-1.1c0-1,0.4-1.9,1-2.6
			C10.4,8.4,11.4,8,12.4,8h1.8c0.4,0,0.7,0.3,0.7,0.7l0,0c0,0.4-0.3,0.7-0.7,0.7h-1.7c-1.3,0-2.3,1-2.4,2.3c0,1.3,1,2.4,2.3,2.4h0.7
			h1c0.2,0,0.4,0.1,0.5,0.2c0.1,0.1,0.2,0.3,0.2,0.5c0,0.4-0.3,0.6-0.7,0.6h-1c-0.2,0-0.6,0-0.8,0C11.4,15.1,10.8,14.9,10.4,14.6z"
			/>
		
			<radialGradient id="SVGID_5_" cx="5.1194" cy="22.9247" r="16.5541" gradientTransform="matrix(1 0 0 -1 0 25.5)" gradientUnits="userSpaceOnUse">
			<stop  offset="0" style="stop-color:#007ACB"/>
			<stop  offset="1" style="stop-color:#0C92D7"/>
		</radialGradient>
		<path class="st9" d="M21.1,6.3c-2.8-4.9-8.8-6.9-13.9-4.6C6.8,1.9,6.8,2.3,6.9,2.7l0,0C7.1,2.8,7.4,3,7.8,2.8
			C8.6,2.4,9.6,2.1,10.6,2c1.2-0.1,2.5,0,3.7,0.3s2.3,0.9,3.3,1.7s1.8,1.8,2.5,2.9c0.6,1.1,1,2.3,1.2,3.6c0.1,1.2,0,2.5-0.3,3.7
			s-0.9,2.3-1.7,3.3c-0.6,0.8-1.3,1.4-2.1,2l0,0c-0.2,0.1-0.4,0.2-0.6,0.4c-0.5,0.3-1,0.5-1.5,0.7c-0.3,0.1-0.5,0.1-0.7,0.2h-0.1
			l0,0c-0.5,0.1-1,0.2-1.5,0.3c-1.2,0.1-2.5,0-3.7-0.3c-1.2-0.3-2.3-0.9-3.3-1.6c-1-0.8-1.8-1.8-2.5-2.9c-0.6-1.1-1-2.3-1.2-3.6
			c-0.1-1.2,0-2.5,0.3-3.7c0.4-1.2,1-2.3,1.7-3.3c0.6-0.8,1.3-1.4,2.1-2c0.3-0.2,0.4-0.6,0.2-0.9l0,0C6.3,2.5,5.8,2.5,5.4,2.7
			C0.8,5.8-0.7,11.9,2.1,17c2.6,4.6,8,6.6,12.8,5.1h0.1l0,0c0.2-0.1,0.5-0.2,0.7-0.3c0.1,0,0.2-0.1,0.3-0.1l0,0
			c0.4-0.2,0.7-0.3,1.1-0.5c0.2-0.1,0.4-0.3,0.6-0.4c0,0,0,0,0.1,0C22.5,17.5,24,11.3,21.1,6.3z"/>
		<circle class="st10" cx="12.3" cy="11.6" r="1.1"/>
		<circle class="st8" cx="15.4" cy="17.4" r="0.7"/>
		<g>
			<path class="st7" d="M14.4,17.4c0-0.2,0-0.3,0.1-0.5c-0.2,0-0.3,0.1-0.5,0.1H7.3v1.3h6.7c0.3,0,0.5,0,0.8-0.1
				C14.6,18,14.4,17.8,14.4,17.4z"/>
			<path class="st10" d="M16,11.6c1-0.7,1.6-1.8,1.6-3c0-1-0.4-1.9-1.1-2.6c-0.7-0.7-1.6-1.1-2.6-1.1h-5c-0.4,0-0.7,0.3-0.7,0.7
				c0,0.4,0.3,0.7,0.7,0.7h5c1.3,0,2.3,1,2.4,2.3c0,1.3-1,2.4-2.3,2.4h-0.7h-1c-0.2,0-0.4,0.1-0.5,0.2c-0.1,0.1-0.2,0.3-0.2,0.5
				c0,0.4,0.3,0.6,0.7,0.6h1h0.7c1.3,0,2.3,1,2.4,2.3c0,0.7-0.3,1.3-0.7,1.7c0.5,0.1,0.9,0.4,0.9,0.9c0.7-0.6,1.1-1.5,1.1-2.5
				c0-0.6-0.2-1.2-0.4-1.8C17,12.4,16.5,11.9,16,11.6z"/>
		</g>
	</g>
	<g>
		<linearGradient id="SVGID_6_" gradientUnits="userSpaceOnUse" x1="30.825" y1="4.6753" x2="30.825" y2="22.3021">
			<stop  offset="0" style="stop-color:#008ECF"/>
			<stop  offset="1" style="stop-color:#66B3E3"/>
		</linearGradient>
		<path class="st11" d="M26.2,7.5h2.7l2,5.9h0l1.9-5.9h2.7v8.6h-1.8V10h0l-2.1,6.1h-1.5L28,10h0v6h-1.8V7.5z"/>
		<linearGradient id="SVGID_7_" gradientUnits="userSpaceOnUse" x1="39.6267" y1="4.6753" x2="39.6267" y2="22.3021">
			<stop  offset="0" style="stop-color:#008ECF"/>
			<stop  offset="1" style="stop-color:#66B3E3"/>
		</linearGradient>
		<path class="st12" d="M40.2,16.8c-0.2,0.5-0.4,0.9-0.8,1.1c-0.3,0.2-0.8,0.3-1.4,0.3c-0.3,0-0.7,0-1-0.1v-1.4c0.4,0,0.8,0.1,1,0.1
			c0.2,0,0.4-0.1,0.5-0.3c0.1-0.1,0.2-0.3,0.2-0.5c0-0.1,0-0.3-0.1-0.4l-2.2-5.8h1.8l1.4,4.2h0L41,9.8h1.8L40.2,16.8z"/>
		<linearGradient id="SVGID_8_" gradientUnits="userSpaceOnUse" x1="47.3906" y1="4.6753" x2="47.3906" y2="22.3021">
			<stop  offset="0" style="stop-color:#008ECF"/>
			<stop  offset="1" style="stop-color:#66B3E3"/>
		</linearGradient>
		<path class="st13" d="M43.8,7.5h4c1.8,0,2.7,0.7,2.7,2.1c0,0.8-0.4,1.4-1.2,1.8c0.5,0.1,0.9,0.4,1.2,0.8c0.3,0.4,0.4,0.8,0.4,1.4
			c0,0.8-0.3,1.4-0.9,1.9s-1.3,0.6-2.1,0.6h-4.2V7.5z M45.7,11h1.9c0.8,0,1.2-0.3,1.2-1c0-0.7-0.4-1-1.3-1h-1.8V11z M45.7,14.6h2
			c0.9,0,1.4-0.4,1.4-1.1c0-0.8-0.5-1.2-1.4-1.2h-2.1V14.6z"/>
		<linearGradient id="SVGID_9_" gradientUnits="userSpaceOnUse" x1="53.2104" y1="4.6753" x2="53.2104" y2="22.3021">
			<stop  offset="0" style="stop-color:#008ECF"/>
			<stop  offset="1" style="stop-color:#66B3E3"/>
		</linearGradient>
		<path class="st14" d="M52.4,7.5h1.7v8.6h-1.7V7.5z"/>
		<linearGradient id="SVGID_10_" gradientUnits="userSpaceOnUse" x1="58.5566" y1="4.6753" x2="58.5566" y2="22.3021">
			<stop  offset="0" style="stop-color:#008ECF"/>
			<stop  offset="1" style="stop-color:#66B3E3"/>
		</linearGradient>
		<path class="st15" d="M61.5,16.1h-1.6v-0.9h0c-0.4,0.7-1,1-1.9,1s-1.4-0.2-1.8-0.6c-0.3-0.4-0.5-1.1-0.5-1.9V9.8h1.7v3.5
			c0,0.5,0.1,0.9,0.2,1.2c0.2,0.2,0.4,0.4,0.8,0.4c0.5,0,0.8-0.1,1-0.4c0.2-0.3,0.3-0.7,0.3-1.4V9.8h1.7V16.1z"/>
		<linearGradient id="SVGID_11_" gradientUnits="userSpaceOnUse" x1="65.7988" y1="4.6753" x2="65.7988" y2="22.3021">
			<stop  offset="0" style="stop-color:#008ECF"/>
			<stop  offset="1" style="stop-color:#66B3E3"/>
		</linearGradient>
		<path class="st16" d="M64.4,13.4c0,0.5,0.2,0.9,0.4,1.2s0.6,0.4,1.1,0.4c0.3,0,0.6-0.1,0.9-0.2c0.3-0.2,0.4-0.3,0.5-0.6h1.5
			c-0.4,1.4-1.4,2.1-2.9,2.1c-1,0-1.7-0.3-2.3-0.9c-0.6-0.6-0.9-1.4-0.9-2.4c0-0.9,0.3-1.7,0.9-2.3c0.6-0.6,1.3-0.9,2.3-0.9
			c1,0,1.8,0.4,2.3,1.1s0.8,1.6,0.7,2.6H64.4z M67.2,12.3c-0.1-0.4-0.2-0.8-0.4-1c-0.2-0.2-0.5-0.3-0.9-0.3c-0.5,0-0.8,0.1-1.1,0.4
			c-0.2,0.3-0.3,0.6-0.4,0.9H67.2z"/>
		<linearGradient id="SVGID_12_" gradientUnits="userSpaceOnUse" x1="77.5044" y1="4.6753" x2="77.5044" y2="22.3021">
			<stop  offset="0" style="stop-color:#008ECF"/>
			<stop  offset="1" style="stop-color:#66B3E3"/>
		</linearGradient>
		<path class="st17" d="M79.6,10.4c-0.1-0.4-0.3-0.8-0.6-1.1c-0.4-0.3-0.8-0.4-1.2-0.4c-0.5,0-1,0.1-1.3,0.4
			c-0.4,0.3-0.6,0.6-0.8,1.1c-0.1,0.4-0.2,0.9-0.2,1.4c0,0.8,0.2,1.5,0.6,2s1,0.8,1.8,0.8c0.6,0,1-0.2,1.3-0.5
			c0.3-0.3,0.5-0.8,0.6-1.4h1.8c-0.1,1.1-0.5,1.9-1.2,2.6c-0.7,0.6-1.5,0.9-2.6,0.9c-1.3,0-2.3-0.4-3.1-1.3
			c-0.8-0.8-1.1-1.9-1.1-3.2c0-1.3,0.4-2.4,1.1-3.2c0.8-0.9,1.8-1.3,3.1-1.3c1,0,1.8,0.3,2.5,0.8c0.7,0.5,1.1,1.3,1.2,2.3H79.6z"/>
		<linearGradient id="SVGID_13_" gradientUnits="userSpaceOnUse" x1="85.8564" y1="4.6753" x2="85.8564" y2="22.3021">
			<stop  offset="0" style="stop-color:#008ECF"/>
			<stop  offset="1" style="stop-color:#66B3E3"/>
		</linearGradient>
		<path class="st18" d="M83.5,15.3c-0.6-0.6-0.9-1.4-0.9-2.4s0.3-1.8,0.9-2.4c0.6-0.6,1.4-0.9,2.3-0.9c1,0,1.8,0.3,2.3,0.9
			c0.6,0.6,0.9,1.4,0.9,2.4s-0.3,1.8-0.9,2.4c-0.6,0.6-1.4,0.9-2.3,0.9C84.9,16.2,84.1,15.9,83.5,15.3z M84.7,11.5
			c-0.2,0.4-0.4,0.9-0.4,1.4c0,0.6,0.1,1,0.4,1.4c0.2,0.4,0.6,0.6,1.1,0.6c0.5,0,0.9-0.2,1.2-0.6c0.2-0.4,0.4-0.8,0.4-1.4
			c0-0.6-0.1-1-0.4-1.4c-0.2-0.4-0.6-0.6-1.2-0.6C85.3,11,84.9,11.2,84.7,11.5z"/>
		<linearGradient id="SVGID_14_" gradientUnits="userSpaceOnUse" x1="91.311" y1="4.6753" x2="91.311" y2="22.3021">
			<stop  offset="0" style="stop-color:#008ECF"/>
			<stop  offset="1" style="stop-color:#66B3E3"/>
		</linearGradient>
		<path class="st19" d="M92.2,8.9h-1.7V7.5h1.7V8.9z M90.5,9.8h1.7v6.2h-1.7V9.8z"/>
		<linearGradient id="SVGID_15_" gradientUnits="userSpaceOnUse" x1="96.6567" y1="4.6753" x2="96.6567" y2="22.3021">
			<stop  offset="0" style="stop-color:#008ECF"/>
			<stop  offset="1" style="stop-color:#66B3E3"/>
		</linearGradient>
		<path class="st20" d="M93.7,9.8h1.6v0.9h0c0.4-0.7,1-1,1.9-1c0.9,0,1.4,0.2,1.8,0.6c0.3,0.4,0.5,1.1,0.5,1.9v3.8h-1.7v-3.5
			c0-0.5-0.1-0.9-0.2-1.2S97.2,11,96.8,11c-0.5,0-0.8,0.1-1,0.4c-0.2,0.3-0.3,0.7-0.3,1.4v3.3h-1.7V9.8z"/>
	</g>
</g>
</svg>
